<svg width="64" height="14" viewBox="0 0 64 14" fill="none" xmlns="http://www.w3.org/2000/svg">
<g clip-path="url(#clip0_2238_733)">
<path d="M22.9102 13.999H23.6671V7.72476e-05H22.9102V13.999Z" fill="#3E2A21"/>
<path d="M16.9179 12.0997L11.7627 0.0536747L11.7399 7.9155e-05H10.9805V13.999H11.6763V1.61569L16.8925 13.9448L16.9153 13.9988H17.5983V-0.000132561H16.9179V12.0997Z" fill="#3E2A21"/>
<path d="M32.4597 7.18118L29.6819 0.0559931L29.6599 2.86102e-06H28.8242V13.9989H29.5266V1.67126L32.1498 8.44811H32.727L35.3503 1.68802V13.9995H36.0818V0.000566483H35.231L32.4597 7.18118Z" fill="#3E2A21"/>
<path d="M64.0008 0.815073V-0.000411034H59.793V13.9985H64.0008V13.1831H60.5499V7.05977H63.7521V6.26358H60.5499V0.814861L64.0008 0.815073Z" fill="#3E2A21"/>
<path d="M51.7804 0.000566483H51.0234V13.9995H55.1709V13.184H51.7804V0.000566483Z" fill="#3E2A21"/>
<path d="M1.94499 8.29521L3.41347 1.53836L4.86784 8.29521H1.94499ZM6.09554 13.999H6.82847L3.84539 0.102197L3.82331 7.72476e-05H3.06195L0.0214168 13.9018L0 13.999H0.705367L1.77636 9.07097H5.03479L6.09554 13.999Z" fill="#3E2A21"/>
<path d="M42.023 8.29521L43.4915 1.53836L44.9459 8.29521H42.023ZM46.1736 13.999H46.9065L43.9234 0.102197L43.9014 7.72476e-05H43.14L40.0995 13.9018L40.0781 13.999H40.7834L41.8544 9.07097H45.1128L46.1736 13.999Z" fill="#3E2A21"/>
</g>
<defs>
<clipPath id="clip0_2238_733">
<rect width="64" height="14" fill="white"/>
</clipPath>
</defs>
</svg>
