<svg width="50" height="21" viewBox="0 0 50 21" fill="none" xmlns="http://www.w3.org/2000/svg">
<g clip-path="url(#clip0_2237_719)">
<path d="M47.4354 20.3746L40.0276 0.0178689L40.0225 0.00439453H39.8763L38.3509 4.18763L35.5737 11.8033L35.5672 11.7973C34.6047 10.9496 33.2467 10.4197 31.5366 10.2224L31.015 10.1686L31.5324 10.1024C34.3527 9.59657 36.2485 7.81876 36.2485 5.67684C36.2485 2.73963 33.4807 0.68949 29.5159 0.68949H21.2666V0.838206H23.6636V16.0153L17.8421 0.017819L17.8369 0.00439453H17.6907L16.1652 4.18763L10.2815 20.3222L10.2453 20.3264C10.1448 20.3388 10.0453 20.3486 9.9469 20.356C9.7989 20.3676 9.65175 20.3745 9.50415 20.3745H3.55915L14.8598 0.838157L14.9438 0.691336H1.12265V6.73483H1.2693C1.2953 3.79113 3.0129 0.838157 6.8078 0.838157H11.3861L0 20.5209H15.3392V14.7308H15.1926C15.1726 17.2966 13.7154 19.7335 10.5465 20.2838L10.4458 20.3009L12.8591 13.6803H19.6195L22.0555 20.3746H19.6525V20.521H29.0842V20.3746H26.6709V10.2766H29.4556C32.2893 10.2766 33.9146 11.5402 33.9146 13.7423V15.5335C33.9146 15.7309 33.928 16.0194 33.9429 16.2608V16.2696L32.4461 20.3736H30.4909V20.52H34.5382V20.3736H32.604L33.967 16.6365C33.9698 16.6726 33.9712 16.6944 33.9712 16.6944L34.0088 17.0311L34.045 17.2539C34.2724 18.632 34.8005 19.645 35.6141 20.2648L35.731 20.3495C36.3492 20.7785 37.1173 20.9957 38.0153 20.9957C39.2048 20.9957 39.9979 20.6997 40.6528 20.0031L40.5669 19.9225C39.9636 20.4783 39.4572 20.7035 38.8228 20.7035C37.7419 20.7035 37.1763 19.3949 37.1763 18.1044V15.5946C37.182 14.9719 37.0843 14.3526 36.8871 13.7617L36.8602 13.6839V13.6811H41.805L44.241 20.3755H41.838V20.5219H50V20.3755L47.4354 20.3746ZM12.9129 13.5339L16.2432 4.40167L19.5662 13.5339H12.9129ZM26.6724 10.1297V0.838157H28.7979C31.6373 0.838157 33.1362 2.52285 33.1362 5.70838C33.1362 9.09628 32.2758 10.1297 29.4556 10.1297H26.6724ZM36.8026 13.5339L36.7882 13.4977C36.5685 12.9636 36.2485 12.4762 35.8456 12.0618L35.7064 11.9228L35.6916 11.9089L38.4269 4.40167L41.7498 13.5339H36.8026Z" fill="#3E2A21"/>
</g>
<defs>
<clipPath id="clip0_2237_719">
<rect width="50" height="21" fill="white"/>
</clipPath>
</defs>
</svg>
