<svg width="85" height="85" viewBox="0 0 85 85" fill="none" xmlns="http://www.w3.org/2000/svg">
<path d="M42.5 0C34.0943 0 25.8774 2.49258 18.8883 7.16254C11.8992 11.8325 6.45186 18.4701 3.23514 26.2359C0.0184146 34.0018 -0.823227 42.5471 0.816645 50.7913C2.45652 59.0355 6.50425 66.6083 12.448 72.552C18.3917 78.4958 25.9645 82.5435 34.2087 84.1834C42.4529 85.8232 50.9982 84.9816 58.764 81.7649C66.5299 78.5481 73.1675 73.1008 77.8375 66.1117C82.5074 59.1226 85 50.9057 85 42.5C84.9881 31.2319 80.5066 20.4288 72.5389 12.4611C64.5712 4.49338 53.7681 0.0118993 42.5 0ZM61.1591 35.0053L38.2745 57.8899C37.9709 58.1939 37.6103 58.435 37.2135 58.5995C36.8166 58.764 36.3912 58.8487 35.9616 58.8487C35.5319 58.8487 35.1065 58.764 34.7096 58.5995C34.3128 58.435 33.9522 58.1939 33.6486 57.8899L23.8409 48.0822C23.2274 47.4688 22.8828 46.6368 22.8828 45.7692C22.8828 44.9017 23.2274 44.0697 23.8409 43.4562C24.4543 42.8428 25.2863 42.4982 26.1539 42.4982C27.0214 42.4982 27.8534 42.8428 28.4668 43.4562L35.9616 50.955L56.5332 30.3793C56.8369 30.0756 57.1975 29.8346 57.5944 29.6702C57.9912 29.5059 58.4166 29.4213 58.8462 29.4213C59.2757 29.4213 59.7011 29.5059 60.0979 29.6702C60.4948 29.8346 60.8554 30.0756 61.1591 30.3793C61.4629 30.6831 61.7038 31.0437 61.8682 31.4405C62.0326 31.8374 62.1172 32.2627 62.1172 32.6923C62.1172 33.1219 62.0326 33.5472 61.8682 33.9441C61.7038 34.3409 61.4629 34.7015 61.1591 35.0053Z" fill="#466330"/>
</svg>
