<svg width="24" height="24" viewBox="0 0 24 24" fill="none" xmlns="http://www.w3.org/2000/svg">
<g clip-path="url(#clip0_35_750)">
<path d="M9 11L9 7C9 4.79086 10.7909 3 13 3V3C15.2091 3 17 4.79086 17 7L17 11" stroke="#466330" stroke-width="2" stroke-linecap="round"/>
<path d="M4.69435 11.6678C4.83942 9.92692 4.91196 9.05647 5.48605 8.52824C6.06013 8 6.9336 8 8.68053 8H17.3195C19.0664 8 19.9399 8 20.514 8.52824C21.088 9.05647 21.1606 9.92692 21.3057 11.6678L21.8195 17.8339C21.904 18.8474 21.9462 19.3542 21.6491 19.6771C21.352 20 20.8435 20 19.8264 20H6.1736C5.15655 20 4.64802 20 4.35092 19.6771C4.05382 19.3542 4.09605 18.8474 4.18051 17.8339L4.69435 11.6678Z" stroke="#466330" stroke-width="2"/>
</g>
<defs>
<clipPath id="clip0_35_750">
<rect width="24" height="24" fill="white"/>
</clipPath>
</defs>
</svg>
