<svg width="19" height="16" viewBox="0 0 19 16" fill="none" xmlns="http://www.w3.org/2000/svg">
<path d="M11.7959 0.454043L18.5459 7.20404C18.6508 7.30856 18.734 7.43275 18.7908 7.5695C18.8476 7.70624 18.8768 7.85285 18.8768 8.00092C18.8768 8.14898 18.8476 8.29559 18.7908 8.43234C18.734 8.56908 18.6508 8.69328 18.5459 8.79779L11.7959 15.5478C11.5846 15.7591 11.2979 15.8779 10.9991 15.8779C10.7002 15.8779 10.4135 15.7591 10.2022 15.5478C9.99084 15.3364 9.87211 15.0498 9.87211 14.7509C9.87211 14.452 9.99084 14.1654 10.2022 13.954L15.0313 9.12498L1.25 9.12498C0.951632 9.12498 0.665483 9.00645 0.454505 8.79548C0.243527 8.5845 0.125 8.29835 0.125 7.99998C0.125 7.70161 0.243527 7.41546 0.454505 7.20448C0.665483 6.99351 0.951632 6.87498 1.25 6.87498L15.0313 6.87498L10.2013 2.04592C9.98991 1.83457 9.87117 1.54793 9.87117 1.24904C9.87117 0.950157 9.98991 0.663513 10.2013 0.452169C10.4126 0.240824 10.6992 0.12209 10.9981 0.12209C11.297 0.12209 11.5837 0.240824 11.795 0.452169L11.7959 0.454043Z" fill="white"/>
</svg>
