<svg width="40" height="40" viewBox="0 0 40 40" fill="none" xmlns="http://www.w3.org/2000/svg">
<path d="M11.668 11.6672V8.33387C11.668 7.36867 11.9474 6.42411 12.4724 5.61419C12.9974 4.80428 13.7457 4.16364 14.6268 3.76961C15.5079 3.37558 16.4842 3.24499 17.4379 3.39362C18.3916 3.54225 19.2819 3.96374 20.0013 4.60721C20.7207 3.96374 21.611 3.54225 22.5647 3.39362C23.5184 3.24499 24.4947 3.37558 25.3758 3.76961C26.2569 4.16364 27.0052 4.80428 27.5302 5.61419C28.0552 6.42411 28.3346 7.36867 28.3346 8.33387V11.6672H30.8346C31.4977 11.6672 32.1336 11.9306 32.6024 12.3994C33.0712 12.8683 33.3346 13.5042 33.3346 14.1672V30.8422C33.3346 32.3871 32.7209 33.8687 31.6285 34.9611C30.5361 36.0535 29.0545 36.6672 27.5096 36.6672H13.3346C11.5665 36.6672 9.87083 35.9648 8.62059 34.7146C7.37035 33.4643 6.66797 31.7687 6.66797 30.0005V14.1672C6.66797 13.5042 6.93136 12.8683 7.4002 12.3994C7.86904 11.9306 8.50493 11.6672 9.16797 11.6672H11.668ZM22.7263 34.1672C22.0464 33.1919 21.6828 32.0311 21.6846 30.8422V14.1672H9.16797V30.0005C9.16797 30.5477 9.27574 31.0895 9.48514 31.5951C9.69453 32.1006 10.0014 32.5599 10.3884 32.9468C10.7753 33.3337 11.2346 33.6406 11.7401 33.85C12.2456 34.0594 12.7875 34.1672 13.3346 34.1672H22.7263ZM19.168 11.6672V8.33387C19.168 7.67083 18.9046 7.03495 18.4357 6.56611C17.9669 6.09727 17.331 5.83387 16.668 5.83387C16.0049 5.83387 15.369 6.09727 14.9002 6.56611C14.4314 7.03495 14.168 7.67083 14.168 8.33387V11.6672H19.168ZM21.668 11.6672H25.8346V8.33387C25.8347 7.81927 25.6759 7.31718 25.38 6.89615C25.0841 6.47512 24.6655 6.15566 24.1813 5.98137C23.6971 5.80709 23.1709 5.78648 22.6746 5.92235C22.1782 6.05822 21.7359 6.34395 21.408 6.74054C21.5763 7.24054 21.668 7.77721 21.668 8.33387V11.6672ZM24.1846 30.8422C24.1846 31.7241 24.5349 32.5698 25.1585 33.1933C25.7821 33.8169 26.6278 34.1672 27.5096 34.1672C28.3915 34.1672 29.2372 33.8169 29.8608 33.1933C30.4843 32.5698 30.8346 31.7241 30.8346 30.8422V14.1672H24.1846V30.8422Z" fill="white"/>
</svg>
