<svg width="40" height="40" viewBox="0 0 40 40" fill="none" xmlns="http://www.w3.org/2000/svg">
<path d="M34.1416 5H27.4883L28.3216 13.3333C28.3216 13.3333 29.9883 15 32.4883 15C33.8006 15.0017 35.0684 14.524 36.0533 13.6567C36.1574 13.5594 36.235 13.4372 36.2787 13.3016C36.3224 13.166 36.3309 13.0214 36.3033 12.8817L35.1266 5.83333C35.0873 5.60049 34.9668 5.38909 34.7865 5.23656C34.6062 5.08404 34.3778 5.00024 34.1416 5V5Z" stroke="white" stroke-width="2"/>
<path d="M27.4883 5L28.3216 13.3333C28.3216 13.3333 26.6549 15 24.1549 15C21.6549 15 19.9883 13.3333 19.9883 13.3333V5H27.4883Z" stroke="#FAFAFA" stroke-width="2"/>
<path d="M19.9896 5V13.3333C19.9896 13.3333 18.3229 15 15.8229 15C13.3229 15 11.6562 13.3333 11.6562 13.3333L12.4896 5H19.9896Z" stroke="#FAFAFA" stroke-width="2"/>
<path d="M12.4892 5H5.83758C5.60091 4.99991 5.37187 5.08377 5.19121 5.23666C5.01054 5.38955 4.88997 5.60157 4.85091 5.835L3.67591 12.8833C3.64845 13.0231 3.65699 13.1676 3.70072 13.3032C3.74445 13.4387 3.82195 13.5609 3.92591 13.6583C4.47258 14.1417 5.69425 15.0017 7.48925 15.0017C9.98925 15.0017 11.6559 13.335 11.6559 13.335L12.4892 5.00167V5Z" stroke="#FAFAFA" stroke-width="2"/>
<path d="M5 15V31.6667C5 32.5507 5.35119 33.3986 5.97631 34.0237C6.60143 34.6488 7.44928 35 8.33333 35H31.6667C32.5507 35 33.3986 34.6488 34.0237 34.0237C34.6488 33.3986 35 32.5507 35 31.6667V15" stroke="#FAFAFA" stroke-width="2"/>
<path d="M24.7227 34.9993V24.9993C24.7227 24.1153 24.3715 23.2674 23.7463 22.6423C23.1212 22.0172 22.2734 21.666 21.3893 21.666H18.056C17.1719 21.666 16.3241 22.0172 15.699 22.6423C15.0738 23.2674 14.7227 24.1153 14.7227 24.9993V34.9993" stroke="#FAFAFA" stroke-width="2" stroke-miterlimit="16"/>
</svg>
