<svg width="22" height="22" viewBox="0 0 22 22" fill="none" xmlns="http://www.w3.org/2000/svg">
<path d="M20.7953 19.2041L16.3431 14.75C17.678 13.0104 18.3013 10.8282 18.0864 8.64607C17.8715 6.4639 16.8347 4.44516 15.1861 2.99937C13.5376 1.55357 11.4008 0.788988 9.20923 0.860713C7.01768 0.932437 4.93546 1.8351 3.38497 3.38559C1.83448 4.93608 0.931819 7.0183 0.860095 9.20985C0.78837 11.4014 1.55295 13.5382 2.99875 15.1867C4.44454 16.8353 6.46328 17.8722 8.64545 18.087C10.8276 18.3019 13.0098 17.6787 14.7494 16.3438L19.2053 20.8006C19.31 20.9053 19.4342 20.9883 19.5709 21.0449C19.7077 21.1016 19.8542 21.1307 20.0022 21.1307C20.1502 21.1307 20.2967 21.1016 20.4335 21.0449C20.5702 20.9883 20.6944 20.9053 20.7991 20.8006C20.9037 20.696 20.9867 20.5717 21.0434 20.435C21.1 20.2983 21.1291 20.1517 21.1291 20.0037C21.1291 19.8558 21.1 19.7092 21.0434 19.5725C20.9867 19.4358 20.9037 19.3115 20.7991 19.2069L20.7953 19.2041ZM3.12438 9.5C3.12438 8.23915 3.49827 7.0066 4.19876 5.95824C4.89926 4.90988 5.8949 4.09278 7.05978 3.61027C8.22466 3.12776 9.50646 3.00151 10.7431 3.2475C11.9797 3.49348 13.1156 4.10064 14.0072 4.9922C14.8987 5.88376 15.5059 7.01967 15.7519 8.2563C15.9979 9.49293 15.8716 10.7747 15.3891 11.9396C14.9066 13.1045 14.0895 14.1001 13.0411 14.8006C11.9928 15.5011 10.7602 15.875 9.49938 15.875C7.80916 15.8733 6.18866 15.2011 4.9935 14.0059C3.79833 12.8107 3.12612 11.1902 3.12438 9.5Z" fill="#3E2A21" fill-opacity="0.6"/>
</svg>
