<svg width="12" height="7" viewBox="0 0 12 7" fill="none" xmlns="http://www.w3.org/2000/svg">
<path d="M0.467449 5.46945L5.46745 0.469449C5.53713 0.399529 5.61992 0.344052 5.71108 0.306198C5.80225 0.268344 5.89999 0.248857 5.9987 0.248857C6.09741 0.248857 6.19515 0.268344 6.28631 0.306198C6.37748 0.344052 6.46027 0.399529 6.52995 0.469449L11.5299 5.46945C11.6708 5.61034 11.75 5.80144 11.75 6.0007C11.75 6.19996 11.6708 6.39105 11.5299 6.53195C11.3891 6.67284 11.198 6.752 10.9987 6.752C10.7994 6.752 10.6083 6.67284 10.4674 6.53195L5.99807 2.06257L1.5287 6.53257C1.3878 6.67347 1.19671 6.75263 0.99745 6.75263C0.798192 6.75263 0.607096 6.67347 0.4662 6.53257C0.325304 6.39168 0.246147 6.20058 0.246147 6.00132C0.246147 5.80207 0.325304 5.61097 0.4662 5.47007L0.467449 5.46945Z" fill="#3E2A21"/>
</svg>
