<svg width="7" height="12" viewBox="0 0 7 12" fill="none" xmlns="http://www.w3.org/2000/svg">
<path d="M1.52927 0.469402L6.52927 5.4694C6.59919 5.53908 6.65467 5.62187 6.69252 5.71304C6.73037 5.8042 6.74986 5.90194 6.74986 6.00065C6.74986 6.09936 6.73037 6.1971 6.69252 6.28827C6.65467 6.37943 6.59919 6.46222 6.52927 6.5319L1.52927 11.5319C1.38837 11.6728 1.19728 11.752 0.99802 11.752C0.798762 11.752 0.607666 11.6728 0.46677 11.5319C0.325873 11.391 0.246719 11.1999 0.246719 11.0007C0.246719 10.8014 0.325873 10.6103 0.46677 10.4694L4.93614 6.00003L0.466145 1.53065C0.325249 1.38976 0.246094 1.19866 0.246094 0.999403C0.246094 0.800145 0.325249 0.609049 0.466145 0.468153C0.607041 0.327257 0.798138 0.2481 0.997395 0.2481C1.19665 0.2481 1.38775 0.327257 1.52865 0.468153L1.52927 0.469402Z" fill="black" fill-opacity="0.6"/>
</svg>
