<svg width="16" height="14" viewBox="0 0 16 14" fill="none" xmlns="http://www.w3.org/2000/svg">
<path d="M8.1036 1.44721C10.0316 1.44721 10.2599 1.45398 11.0215 1.48656C11.4794 1.49182 11.933 1.5707 12.3625 1.71979C12.674 1.83248 12.9568 2.00511 13.1929 2.22656C13.4289 2.44802 13.613 2.71339 13.7331 3.00559C13.892 3.40853 13.9761 3.83406 13.9817 4.26366C14.0161 4.97817 14.0236 5.19237 14.0236 7.00108C14.0236 8.80979 14.0164 9.02398 13.9817 9.7385C13.9761 10.1681 13.892 10.5936 13.7331 10.9966C13.613 11.2888 13.4289 11.5541 13.1929 11.7756C12.9568 11.997 12.674 12.1697 12.3625 12.2824C11.933 12.4315 11.4794 12.5103 11.0215 12.5156C10.2602 12.5479 10.0319 12.5549 8.1036 12.5549C6.17531 12.5549 5.94699 12.5482 5.18572 12.5156C4.72779 12.5103 4.27422 12.4315 3.84471 12.2824C3.53324 12.1697 3.25038 11.997 3.01432 11.7756C2.77827 11.5541 2.59426 11.2888 2.47414 10.9966C2.31523 10.5936 2.23114 10.1681 2.22554 9.7385C2.19115 9.02398 2.18359 8.80979 2.18359 7.00108C2.18359 5.19237 2.19081 4.97817 2.22554 4.26366C2.23114 3.83406 2.31523 3.40853 2.47414 3.00559C2.59426 2.71339 2.77827 2.44802 3.01432 2.22656C3.25038 2.00511 3.53324 1.83248 3.84471 1.71979C4.27422 1.5707 4.72779 1.49182 5.18572 1.48656C5.94734 1.4543 6.17565 1.44721 8.1036 1.44721ZM8.1036 0.226562C6.14368 0.226562 5.89679 0.234304 5.12657 0.267208C4.52727 0.278391 3.93432 0.384847 3.37295 0.582046C2.89139 0.752261 2.45522 1.019 2.09487 1.36366C1.72716 1.70184 1.44259 2.11127 1.26104 2.56334C1.05084 3.08998 0.93737 3.64625 0.92545 4.2085C0.891065 4.93043 0.882812 5.16205 0.882812 7.00076C0.882812 8.83946 0.891065 9.07108 0.926137 9.79366C0.938058 10.3559 1.05153 10.9122 1.26173 11.4388C1.44308 11.8908 1.72741 12.3002 2.09487 12.6385C2.45542 12.9832 2.89184 13.25 3.37364 13.4201C3.93501 13.6173 4.52795 13.7238 5.12726 13.7349C5.89748 13.7672 6.14333 13.7756 8.10429 13.7756C10.0653 13.7756 10.3111 13.7679 11.0813 13.7349C11.6806 13.7238 12.2736 13.6173 12.8349 13.4201C13.3145 13.2457 13.7499 12.9794 14.1135 12.6381C14.477 12.2968 14.7606 11.8882 14.9462 11.4382C15.1564 10.9115 15.2698 10.3553 15.2818 9.79301C15.3161 9.07108 15.3244 8.83946 15.3244 7.00076C15.3244 5.16205 15.3161 4.93043 15.2811 4.20785C15.2692 3.64561 15.1557 3.08934 14.9455 2.56269C14.7641 2.11068 14.4798 1.70126 14.1123 1.36301C13.7518 1.01828 13.3154 0.751533 12.8336 0.581401C12.2722 0.384201 11.6793 0.277746 11.0799 0.266563C10.3104 0.234304 10.0635 0.226562 8.1036 0.226562Z" fill="#3E2A21"/>
<path d="M8.10649 3.52344C7.37311 3.52344 6.65619 3.72746 6.04641 4.10971C5.43662 4.49195 4.96135 5.03525 4.6807 5.6709C4.40004 6.30655 4.32661 7.00601 4.46969 7.68081C4.61276 8.35561 4.96592 8.97546 5.4845 9.46197C6.00308 9.94847 6.66379 10.2798 7.38308 10.414C8.10237 10.5482 8.84794 10.4794 9.5255 10.2161C10.2031 9.95276 10.7822 9.50689 11.1896 8.93481C11.5971 8.36274 11.8145 7.69017 11.8145 7.00215C11.8145 6.07954 11.4239 5.19471 10.7285 4.54233C10.0331 3.88994 9.08992 3.52344 8.10649 3.52344ZM8.10649 9.26021C7.63044 9.26021 7.16509 9.12778 6.76927 8.87966C6.37345 8.63154 6.06495 8.27888 5.88277 7.86627C5.7006 7.45366 5.65293 6.99964 5.74581 6.56162C5.83868 6.1236 6.06792 5.72125 6.40453 5.40545C6.74115 5.08966 7.17002 4.8746 7.63692 4.78747C8.10382 4.70034 8.58777 4.74506 9.02758 4.91597C9.46739 5.08687 9.8433 5.3763 10.1078 5.74763C10.3723 6.11897 10.5134 6.55554 10.5134 7.00215C10.5134 7.60102 10.2598 8.17537 9.80844 8.59884C9.35706 9.02231 8.74485 9.26021 8.10649 9.26021Z" fill="#3E2A21"/>
<path d="M11.9602 4.19807C12.4388 4.19807 12.8267 3.83412 12.8267 3.38517C12.8267 2.93621 12.4388 2.57227 11.9602 2.57227C11.4817 2.57227 11.0938 2.93621 11.0938 3.38517C11.0938 3.83412 11.4817 4.19807 11.9602 4.19807Z" fill="#3E2A21"/>
</svg>
