<svg width="22" height="22" viewBox="0 0 22 22" fill="none" xmlns="http://www.w3.org/2000/svg">
<path d="M20.7953 19.2044L16.3431 14.7504C17.678 13.0108 18.3013 10.8286 18.0864 8.64643C17.8715 6.46426 16.8347 4.44552 15.1861 2.99972C13.5376 1.55393 11.4008 0.789347 9.20923 0.861071C7.01768 0.932796 4.93546 1.83546 3.38497 3.38595C1.83448 4.93644 0.931819 7.01865 0.860095 9.21021C0.78837 11.4018 1.55295 13.5385 2.99875 15.1871C4.44454 16.8356 6.46328 17.8725 8.64545 18.0874C10.8276 18.3023 13.0098 17.679 14.7494 16.3441L19.2053 20.801C19.31 20.9056 19.4342 20.9886 19.5709 21.0453C19.7077 21.1019 19.8542 21.1311 20.0022 21.1311C20.1502 21.1311 20.2967 21.1019 20.4335 21.0453C20.5702 20.9886 20.6944 20.9056 20.7991 20.801C20.9037 20.6963 20.9867 20.5721 21.0434 20.4354C21.1 20.2986 21.1291 20.1521 21.1291 20.0041C21.1291 19.8561 21.1 19.7096 21.0434 19.5728C20.9867 19.4361 20.9037 19.3119 20.7991 19.2072L20.7953 19.2044ZM3.12438 9.50036C3.12438 8.2395 3.49827 7.00696 4.19876 5.9586C4.89926 4.91024 5.8949 4.09314 7.05978 3.61063C8.22466 3.12812 9.50646 3.00187 10.7431 3.24785C11.9797 3.49383 13.1156 4.10099 14.0072 4.99255C14.8987 5.88411 15.5059 7.02003 15.7519 8.25666C15.9979 9.49329 15.8716 10.7751 15.3891 11.94C14.9066 13.1048 14.0895 14.1005 13.0411 14.801C11.9928 15.5015 10.7602 15.8754 9.49938 15.8754C7.80916 15.8736 6.18866 15.2014 4.9935 14.0062C3.79833 12.8111 3.12612 11.1906 3.12438 9.50036Z" fill="#3E2A21" fill-opacity="0.6"/>
</svg>
