<svg width="75" height="20" viewBox="0 0 75 20" fill="none" xmlns="http://www.w3.org/2000/svg">
<path fill-rule="evenodd" clip-rule="evenodd" d="M50.5289 1.58835H54.4214V1.85305H53.6339L53.6564 18.2207H54.4514V18.5148H50.5514V18.2428H51.3389L51.3164 1.88246H50.5289V1.58835ZM37.8989 1.6104H42.0689V1.87511H41.0114L41.0339 18.2428H43.1039C45.7964 18.2428 46.6589 16.5516 46.9289 14.8089H47.2514V18.5075L37.9289 18.5295V18.2428H38.6939L38.6639 1.87511H37.8989V1.6104ZM19.8764 1.63246H29.4914V5.33099H29.1764C28.9064 3.5957 28.7039 1.90452 26.0189 1.90452H23.0114V9.66187C24.0689 9.66187 24.9539 9.77952 25.7489 9.00746C26.1689 8.57364 26.3114 8.08834 26.3864 7.80158H26.6564V11.8604H26.3639C26.3114 11.5736 26.1389 11.0663 25.7189 10.6545C24.9314 9.88246 24.3689 9.97805 23.0114 10.0001V18.2648H26.0414C28.7264 18.2942 28.9289 16.6031 29.1764 14.8604H29.4914V18.5589H19.8989V18.2648H20.6639V1.90452H19.8764V1.63246ZM7.25391 18.2869H8.04141V1.91923H7.25391V1.62511H11.4464V1.91923H10.3814V18.2869H12.4589C15.1439 18.2869 16.0289 16.5663 16.2989 14.831H16.5989V18.5516H7.25391V18.2869ZM66.3089 6.15452H65.8364C65.3189 3.51482 64.1339 1.77217 62.5364 1.80158C61.9889 1.80158 61.1564 2.06629 60.7064 2.7207C60.2864 3.36776 60.3614 4.19129 60.3914 4.43393C60.6839 7.62511 67.7864 10.5295 67.2164 15.0957C67.0964 16.0589 66.5564 17.2722 65.5439 17.9486C64.5539 18.6251 63.3764 18.6031 62.8289 18.6031C60.8789 18.5736 59.6714 17.3898 59.0114 17.9266C58.8089 18.0663 58.7639 18.3604 58.7339 18.5001H58.2164V13.3751H58.5914C58.6139 13.4486 58.6139 13.5736 58.6364 13.6913C59.0114 15.5295 60.6839 18.1913 62.7839 18.1913C63.9614 18.1913 64.9289 17.8016 65.3714 16.7354C66.0389 15.1178 64.8014 13.3531 63.3989 11.9045C62.5589 11.0589 62.5814 11.081 61.5689 9.94864C59.4764 7.60305 58.5914 6.41187 58.5914 5.13246C58.5614 4.07364 59.0114 3.10305 59.7689 2.40452C60.9089 1.41187 62.3864 1.46335 62.6564 1.46335C64.1864 1.52952 64.6814 2.08834 65.3489 2.08834C65.7614 2.08834 65.8364 1.67658 65.8364 1.55893H66.3089V6.15452Z" fill="#3E2A21"/>
</svg>
