<svg width="63" height="10" viewBox="0 0 63 10" fill="none" xmlns="http://www.w3.org/2000/svg">
<g clip-path="url(#clip0_2241_749)">
<path d="M46.871 4.82754C47.6635 4.82754 48.3142 4.61375 48.8041 4.19266C49.3 3.76626 49.5517 3.19793 49.5517 2.50239C49.5517 1.80685 49.3005 1.23852 48.8041 0.812128C48.3136 0.391032 47.6635 0.177246 46.871 0.177246H42.8906V9.03319H43.4397V4.82754H45.4857L49.2556 9.03319H50.0257L46.2167 4.82754H46.8698H46.871ZM43.4397 0.699051H46.871C47.5211 0.699051 48.0459 0.867488 48.4312 1.19906C48.8159 1.53005 49.0027 1.95703 49.0027 2.50298C49.0027 3.04893 48.8159 3.47532 48.4312 3.8069C48.0459 4.13847 47.5211 4.30691 46.871 4.30691H43.4397V0.69964V0.699051Z" fill="#3E2A21"/>
<path d="M52.01 0.177246H51.4609V9.03319H52.01V0.177246Z" fill="#3E2A21"/>
<path d="M61.6926 1.3709C60.8256 0.493968 59.7523 0.0493164 58.5036 0.0493164C57.2548 0.0493164 56.1686 0.493968 55.3016 1.3709C54.4352 2.24725 53.9961 3.33561 53.9961 4.60537C53.9961 5.87513 54.4352 6.96351 55.3016 7.83985C56.1686 8.71679 57.246 9.16144 58.5036 9.16144C59.7612 9.16144 60.8368 8.71679 61.6996 7.83927C62.5613 6.96292 62.9987 5.87454 62.9987 4.60478C62.9987 3.33503 62.5595 2.24666 61.6931 1.37032L61.6926 1.3709ZM55.6905 1.74252C56.4499 0.965119 57.3967 0.571119 58.503 0.571119C59.6093 0.571119 60.5431 0.965119 61.3025 1.74252C62.0631 2.5211 62.4484 3.48462 62.4484 4.60597C62.4484 5.72731 62.0631 6.70084 61.3025 7.4753C60.5431 8.24858 59.601 8.64082 58.5024 8.64082C57.4038 8.64082 56.4487 8.24858 55.6893 7.4753C54.9287 6.70143 54.5434 5.73556 54.5434 4.60597C54.5434 3.47638 54.9287 2.5211 55.6893 1.74252H55.6905Z" fill="#3E2A21"/>
<path fill-rule="evenodd" clip-rule="evenodd" d="M23.5006 6.0355C23.6666 5.9878 23.8191 5.9183 23.9615 5.83526C24.114 5.76458 24.2677 5.67035 24.3977 5.56434C25.1069 5.01132 25.5549 4.16384 25.5549 3.21093C25.5549 2.98772 25.5318 2.7757 25.4839 2.57546C25.4361 2.37522 25.3776 2.17557 25.2824 1.98652C24.8463 1.02183 23.9131 0.339247 22.8026 0.256795H21.5751L18.1261 0.245605C17.9494 0.245605 17.7839 0.316279 17.6657 0.433478C17.5481 0.551267 17.4766 0.716169 17.4766 0.904042V9.0126H18.7874V6.18863H22.0822L23.7712 9.00141L23.7825 9.0126H25.2706L25.2582 8.98964L23.4988 6.0355H23.5006ZM21.5763 4.99955H18.7886V1.42172H22.5798C23.0762 1.42172 23.5242 1.62255 23.8428 1.95177C24.1619 2.26921 24.3741 2.71681 24.3741 3.21093V3.22271C24.3741 3.35169 24.3504 3.46947 24.3268 3.59904C24.3043 3.71624 24.2565 3.83462 24.2092 3.95241C23.9491 4.5172 23.406 4.92887 22.7565 4.99955H21.5763Z" fill="#3E2A21"/>
<path fill-rule="evenodd" clip-rule="evenodd" d="M15.3282 8.98896C15.08 8.38824 14.8199 7.77751 14.5717 7.17678C13.6504 5.01123 12.7414 2.84569 11.927 0.669544L11.9146 0.658354C11.9034 0.62184 11.8797 0.586503 11.8679 0.551166C11.8437 0.528787 11.8206 0.492861 11.7964 0.469303C11.6788 0.327957 11.5015 0.246094 11.3 0.246094C11.2651 0.246094 11.2415 0.246094 11.206 0.257284C11.1711 0.257284 11.1351 0.269652 11.0996 0.280842C11.0636 0.292621 11.0287 0.304988 11.0057 0.316178C10.8638 0.386851 10.7462 0.515829 10.6859 0.669544C9.86032 2.84627 8.95078 5.01123 8.04065 7.17678C7.78061 7.77751 7.52176 8.38824 7.27295 8.98896L7.26172 9.01252H8.58377V9.00133L9.12808 7.69505H13.4849L14.0162 9.00133L14.0274 9.01252H15.3388L15.327 8.98896H15.3282ZM11.3006 6.63496H9.56482L11.3006 2.3869L13.0487 6.63496H11.3006Z" fill="#3E2A21"/>
<path fill-rule="evenodd" clip-rule="evenodd" d="M1.34667 4.54066H5.07881C5.11367 4.55244 5.16154 4.55244 5.19641 4.576C5.24428 4.58719 5.27856 4.59956 5.31461 4.62252C5.49132 4.72912 5.60951 4.91759 5.60951 5.14079V5.18791C5.59769 5.23561 5.59769 5.28214 5.57405 5.31807C5.56282 5.36518 5.55042 5.40052 5.52678 5.43585C5.42099 5.61254 5.23128 5.72915 5.01911 5.72915H1.34667V9.01311H0.0234375V0.904532C0.0234375 0.71607 0.105585 0.551166 0.223783 0.434556C0.342573 0.316767 0.507461 0.246094 0.685348 0.246094H7.06278V1.42221H1.34667V4.54125V4.54066Z" fill="#3E2A21"/>
<path fill-rule="evenodd" clip-rule="evenodd" d="M28.9785 0.0917969C29.0725 0.0917969 29.167 0.115355 29.2504 0.150691C29.274 0.16247 29.2977 0.17366 29.3213 0.186617C29.4513 0.256701 29.5453 0.36271 29.6038 0.504057L32.9701 6.09432L36.324 0.504057C36.3358 0.46872 36.3589 0.433384 36.3831 0.409826C36.3955 0.375079 36.418 0.350931 36.4416 0.315595C36.5716 0.186617 36.7489 0.0917969 36.9504 0.0917969H36.9623C37.0208 0.0917969 37.0686 0.102987 37.1159 0.115355C37.1626 0.127133 37.2099 0.138912 37.2572 0.162469C37.4699 0.268479 37.623 0.492277 37.6466 0.738453V9.01253H36.324V2.563C35.9458 3.19906 35.5799 3.84631 35.2141 4.49355C34.658 5.47061 34.1042 6.44769 33.525 7.4006L33.5126 7.41238C33.5014 7.44712 33.4772 7.47127 33.4654 7.49483C33.4417 7.51839 33.4181 7.52958 33.3944 7.55372C33.2756 7.64854 33.1344 7.70685 32.9689 7.70685H32.9453C32.9104 7.70685 32.8744 7.70685 32.8507 7.69507C32.8153 7.69507 32.7804 7.68329 32.7562 7.67151C32.6149 7.6244 32.4961 7.52958 32.414 7.40119C31.7999 6.41176 31.2095 5.37638 30.6309 4.3528C30.2893 3.75267 29.9578 3.15194 29.615 2.56358V9.01312H28.293V0.739047C28.293 0.692521 28.3048 0.6454 28.316 0.598873C28.3278 0.551172 28.3515 0.504645 28.3751 0.469309C28.4815 0.2461 28.7179 0.0929748 28.9779 0.0929748" fill="#3E2A21"/>
</g>
<defs>
<clipPath id="clip0_2241_749">
<rect width="63" height="9.1875" fill="white"/>
</clipPath>
</defs>
</svg>
