<svg width="47" height="47" viewBox="0 0 47 47" fill="none" xmlns="http://www.w3.org/2000/svg">
<g clip-path="url(#clip0_2238_728)">
<path fill-rule="evenodd" clip-rule="evenodd" d="M44.1792 29.4168C44.3711 29.5266 44.5635 29.5746 44.7693 29.5746H44.7759C44.9822 29.5746 45.1746 29.5266 45.3665 29.4168C45.5541 29.3183 45.7074 29.1651 45.8061 28.9775C45.9097 28.798 45.964 28.5944 45.9636 28.3871C45.9636 28.1743 45.9156 27.9753 45.8061 27.7829C45.7027 27.5908 45.5518 27.4467 45.3599 27.3435C45.1675 27.2407 44.9756 27.186 44.7759 27.186H44.7693C44.5652 27.1922 44.3653 27.2461 44.1858 27.3435C43.9939 27.4467 43.8496 27.5908 43.7396 27.7829C43.6342 27.9667 43.5798 28.1753 43.5821 28.3871C43.5821 28.5861 43.6301 28.7853 43.7396 28.9775C43.8382 29.1652 43.9915 29.3184 44.1792 29.4168ZM43.9118 27.8861C43.9985 27.7305 44.1268 27.6021 44.2824 27.5152C44.4399 27.4328 44.6047 27.385 44.7696 27.385H44.7761C44.941 27.385 45.1058 27.4328 45.2638 27.5152C45.4192 27.6022 45.5475 27.7306 45.6344 27.8861C45.7239 28.0438 45.7649 28.2087 45.7649 28.3871C45.7657 28.5604 45.7207 28.7309 45.6344 28.8812C45.55 29.0344 45.4238 29.1605 45.2706 29.2449C45.1202 29.3312 44.9497 29.3762 44.7764 29.3754H44.7698C44.5965 29.376 44.426 29.3311 44.2756 29.2449C44.1226 29.1604 43.9966 29.0342 43.9122 28.8812C43.8228 28.7234 43.7747 28.5588 43.7747 28.3871C43.774 28.2087 43.822 28.0441 43.9118 27.8861Z" fill="#3E2A21"/>
<path fill-rule="evenodd" clip-rule="evenodd" d="M44.4555 28.4966H44.5789C44.6547 28.4966 44.7093 28.5105 44.7437 28.5447C44.7576 28.5515 44.7647 28.5586 44.7713 28.5652C44.8261 28.6132 44.8881 28.7095 44.9637 28.84L45.0805 29.0458H45.3277L45.1768 28.7919C45.1009 28.6751 45.0324 28.5859 44.9844 28.5379C44.9525 28.5081 44.9151 28.4849 44.8744 28.4693C44.9844 28.4625 45.0734 28.4213 45.1421 28.3525C45.2109 28.2838 45.2455 28.2016 45.2455 28.1053C45.2455 28.0368 45.2246 27.9748 45.1836 27.92C45.1452 27.8604 45.0867 27.8166 45.0188 27.7964C44.9639 27.7759 44.8817 27.762 44.7715 27.762C44.751 27.762 44.7235 27.7552 44.6962 27.7552H44.25V29.0455H44.4558L44.4555 28.4966ZM44.4555 27.9336H44.7713C44.8332 27.9407 44.8742 27.9475 44.9017 27.9544C44.9391 27.965 44.9709 27.9895 44.9907 28.0229C45.0112 28.0502 45.0183 28.0848 45.0183 28.126C45.0191 28.1521 45.0139 28.1779 45.0031 28.2017C44.9924 28.2254 44.9764 28.2464 44.9563 28.2631C44.922 28.2974 44.86 28.3111 44.771 28.3182H44.4553V27.9336H44.4555ZM13.6298 28.078H15.4832L13.6298 24.9891L12.0647 22.3879L5.41369 26.3826L6.42949 28.078H13.6298ZM30.8719 28.078H39.9256L34.2899 18.6883L28.0578 8.32373L25.4905 9.86816L21.4134 12.3184L25.4905 19.1069L30.8719 28.078ZM27.7079 31.1737C27.0694 30.7621 26.321 30.5217 25.511 30.5217H25.4905C23.2531 30.5353 21.4342 32.3611 21.4342 34.5988C21.4342 36.8367 23.2531 38.6622 25.4905 38.6761H25.511C26.321 38.6761 27.0694 38.436 27.7079 38.0241V38.4496H29.5815V28.0782H27.7079V31.1737ZM27.7079 35.0245C27.509 36.0542 26.5958 36.8432 25.511 36.8432H25.4905C24.2619 36.8296 23.2668 35.8274 23.2668 34.5988C23.2668 33.3704 24.2619 32.3682 25.4905 32.3611H25.511C26.5958 32.3611 27.5087 33.1438 27.7079 34.1733V35.0245ZM36.5073 31.1737C35.8542 30.7474 35.0909 30.5208 34.3109 30.5217H34.2899C32.0525 30.5353 30.2338 32.3611 30.2338 34.5988C30.2338 36.8367 32.0525 38.6622 34.2899 38.6761H34.3109C35.1209 38.6761 35.8758 38.436 36.5073 38.0241V38.4496H38.3814V30.7275H36.5073V31.1737ZM36.5073 35.0245C36.3084 36.0542 35.3952 36.8432 34.3109 36.8432H34.2899C33.0618 36.8296 32.0664 35.8274 32.0664 34.5988C32.0664 33.3704 33.0618 32.3682 34.2899 32.3611H34.3109C35.3952 32.3611 36.3081 33.1438 36.5073 34.1733V35.0245ZM45.0461 34.0909C44.9776 34.0562 44.8812 34.0221 44.7713 33.9809C44.3526 33.8368 43.6731 33.6583 42.7258 33.4525C41.8953 33.267 41.4766 33.027 41.4766 32.7249C41.4766 32.5121 41.552 32.3404 41.6961 32.217C41.8885 32.0522 42.2313 31.9698 42.7258 31.9698C43.2268 31.9698 43.5906 32.0798 43.8035 32.2924C43.934 32.4228 44.0298 32.6559 44.0917 32.9856H46.0824C46.0824 32.011 45.6842 31.311 44.9017 30.8855C44.8605 30.8585 44.8168 30.8356 44.7713 30.8169C44.2288 30.5629 43.5082 30.4324 42.6092 30.4324C41.5176 30.4324 40.6942 30.7209 40.1453 31.3041C39.7062 31.7708 39.4933 32.3404 39.4933 33.0131C39.4933 33.8509 39.9049 34.4547 40.7424 34.846C41.0582 34.997 41.8268 35.2098 43.0489 35.4707C43.8657 35.6492 44.277 35.9033 44.277 36.2259C44.277 36.4182 44.1951 36.5828 44.0166 36.7338C43.7899 36.9259 43.4465 37.0222 42.9869 37.0222C42.3759 37.0222 41.9436 36.9193 41.6897 36.7204C41.4354 36.5282 41.305 36.2468 41.305 35.8899H39.2185C39.2185 36.8371 39.6167 37.544 40.4196 38.0105C41.0582 38.3743 41.8955 38.5598 42.9323 38.5598C43.6253 38.5598 44.2429 38.443 44.7715 38.2167C44.8815 38.1687 44.9778 38.1204 45.0807 38.0656C45.8975 37.6128 46.3094 36.892 46.3094 35.9038C46.3091 35.093 45.89 34.4888 45.0461 34.0909ZM6.96495 31.1737C6.30884 30.7483 5.54364 30.5218 4.76169 30.5217H4.74096C2.51039 30.5353 0.691406 32.3611 0.691406 34.5988C0.691406 36.8367 2.51039 38.6622 4.74096 38.6761H4.76169C5.5717 38.6761 6.3266 38.436 6.96495 38.0241V38.4496H8.83879V30.7275H6.96495V31.1737ZM6.96495 35.0245C6.76598 36.0542 5.85283 36.8432 4.76169 36.8432H4.74096C3.51937 36.8296 2.52404 35.8274 2.52404 34.5988C2.52404 33.3704 3.51937 32.3682 4.74096 32.3611H4.76169C5.85308 32.3611 6.76598 33.1438 6.96495 34.1733V35.0245ZM18.6611 29.9109H20.6997V28.1192H18.6611V29.9109ZM18.6611 38.4494H20.6997V30.5217H18.6611V38.4494ZM15.8538 31.1737C15.1976 30.7482 14.4324 30.5218 13.6503 30.5217H13.6298C11.3922 30.5353 9.57322 32.3611 9.57322 34.5988C9.57322 36.8367 11.392 38.6622 13.6298 38.6761H13.6503C14.4324 38.6761 15.1977 38.4496 15.8538 38.0241V38.4496H17.7277V28.0782H15.8538V31.1737ZM15.8538 35.0245C15.6549 36.0542 14.7417 36.8432 13.6503 36.8432H13.6298C12.4012 36.8296 11.4059 35.8274 11.4059 34.5988C11.4059 33.3704 12.4012 32.3682 13.6298 32.3611H13.6503C14.7417 32.3611 15.6546 33.1438 15.8538 34.1733V35.0245ZM27.7006 28.078L25.4905 24.3854L20.0614 15.3524L13.6298 19.2237L13.4101 19.3539L13.6298 19.7177L18.654 28.078H27.7006Z" fill="#3E2A21"/>
</g>
<defs>
<clipPath id="clip0_2238_728">
<rect width="47" height="47" fill="white"/>
</clipPath>
</defs>
</svg>
