<svg width="16" height="14" viewBox="0 0 16 14" fill="none" xmlns="http://www.w3.org/2000/svg">
<path fill-rule="evenodd" clip-rule="evenodd" d="M7.72285 0C3.59247 0 0.269531 3.11742 0.269531 6.99234C0.269531 10.0806 2.41236 12.7027 5.36263 13.6351C5.7353 13.6933 5.85952 13.4894 5.85952 13.2854C5.85952 13.1106 5.85952 12.6736 5.85952 12.0909C3.7788 12.5279 3.34402 11.1586 3.34402 11.1586C3.00241 10.3428 2.50553 10.1389 2.50553 10.1389C1.82231 9.70187 2.56764 9.70187 2.56764 9.70187C3.31297 9.76014 3.71669 10.4302 3.71669 10.4302C4.36885 11.5082 5.4558 11.1877 5.89057 11.0129C5.95268 10.5468 6.13902 10.2554 6.35641 10.0806C4.71047 9.90581 2.97136 9.29398 2.97136 6.61358C2.97136 5.85608 3.25086 5.21512 3.74775 4.74896C3.68563 4.57415 3.40613 3.87492 3.80986 2.88434C3.80986 2.88434 4.43097 2.70953 5.85952 3.61271C6.44957 3.46703 7.10174 3.37963 7.72285 3.37963C8.34396 3.37963 8.99612 3.46703 9.58618 3.61271C11.0147 2.70953 11.6358 2.88434 11.6358 2.88434C12.0396 3.84578 11.7911 4.54502 11.6979 4.74896C12.1638 5.24425 12.4743 5.85608 12.4743 6.61358C12.4743 9.29398 10.7352 9.87668 9.05823 10.0515C9.33773 10.2554 9.55512 10.6924 9.55512 11.3334C9.55512 12.2657 9.55512 13.0232 9.55512 13.2563C9.55512 13.4311 9.67934 13.6642 10.0831 13.6059C13.0333 12.7027 15.1762 10.0806 15.1762 6.99234C15.1762 3.11742 11.8532 0 7.72285 0Z" fill="#3E2A21"/>
</svg>
