<svg width="41" height="40" viewBox="0 0 41 40" fill="none" xmlns="http://www.w3.org/2000/svg">
<path d="M34.6416 5H27.9883L28.8216 13.3333C28.8216 13.3333 30.4883 15 32.9883 15C34.3006 15.0017 35.5684 14.524 36.5533 13.6567C36.6574 13.5594 36.735 13.4372 36.7787 13.3016C36.8224 13.166 36.8309 13.0214 36.8033 12.8817L35.6266 5.83333C35.5873 5.60049 35.4668 5.38909 35.2865 5.23656C35.1062 5.08404 34.8778 5.00024 34.6416 5V5Z" stroke="white" stroke-width="2"/>
<path d="M27.9883 5L28.8216 13.3333C28.8216 13.3333 27.1549 15 24.6549 15C22.1549 15 20.4883 13.3333 20.4883 13.3333V5H27.9883Z" stroke="#FAFAFA" stroke-width="2"/>
<path d="M20.4896 5V13.3333C20.4896 13.3333 18.8229 15 16.3229 15C13.8229 15 12.1562 13.3333 12.1562 13.3333L12.9896 5H20.4896Z" stroke="#FAFAFA" stroke-width="2"/>
<path d="M12.9892 5H6.33758C6.10091 4.99991 5.87187 5.08377 5.69121 5.23666C5.51054 5.38955 5.38997 5.60157 5.35091 5.835L4.17591 12.8833C4.14845 13.0231 4.15699 13.1676 4.20072 13.3032C4.24445 13.4387 4.32195 13.5609 4.42591 13.6583C4.97258 14.1417 6.19425 15.0017 7.98925 15.0017C10.4892 15.0017 12.1559 13.335 12.1559 13.335L12.9892 5.00167V5Z" stroke="#FAFAFA" stroke-width="2"/>
<path d="M5.5 15V31.6667C5.5 32.5507 5.85119 33.3986 6.47631 34.0237C7.10143 34.6488 7.94928 35 8.83333 35H32.1667C33.0507 35 33.8986 34.6488 34.5237 34.0237C35.1488 33.3986 35.5 32.5507 35.5 31.6667V15" stroke="#FAFAFA" stroke-width="2"/>
<path d="M25.2227 34.9993V24.9993C25.2227 24.1153 24.8715 23.2674 24.2463 22.6423C23.6212 22.0172 22.7734 21.666 21.8893 21.666H18.556C17.6719 21.666 16.8241 22.0172 16.199 22.6423C15.5738 23.2674 15.2227 24.1153 15.2227 24.9993V34.9993" stroke="#FAFAFA" stroke-width="2" stroke-miterlimit="16"/>
</svg>
