<svg width="18" height="23" viewBox="0 0 18 23" fill="none" xmlns="http://www.w3.org/2000/svg">
<path d="M17.25 3.45452H13.5V2.59089C13.5 1.90374 13.2629 1.24474 12.841 0.758855C12.419 0.272968 11.8467 0 11.25 0H6.75C6.15326 0 5.58097 0.272968 5.15901 0.758855C4.73705 1.24474 4.5 1.90374 4.5 2.59089V3.45452H0.75C0.551088 3.45452 0.360322 3.54551 0.21967 3.70747C0.0790178 3.86944 0 4.0891 0 4.31815C0 4.5472 0.0790178 4.76687 0.21967 4.92883C0.360322 5.09079 0.551088 5.18178 0.75 5.18178H1.5V20.7271C1.5 21.1852 1.65804 21.6246 1.93934 21.9485C2.22064 22.2724 2.60218 22.4544 3 22.4544H15C15.3978 22.4544 15.7794 22.2724 16.0607 21.9485C16.342 21.6246 16.5 21.1852 16.5 20.7271V5.18178H17.25C17.4489 5.18178 17.6397 5.09079 17.7803 4.92883C17.921 4.76687 18 4.5472 18 4.31815C18 4.0891 17.921 3.86944 17.7803 3.70747C17.6397 3.54551 17.4489 3.45452 17.25 3.45452ZM7.5 16.409C7.5 16.638 7.42098 16.8577 7.28033 17.0197C7.13968 17.1816 6.94891 17.2726 6.75 17.2726C6.55109 17.2726 6.36032 17.1816 6.21967 17.0197C6.07902 16.8577 6 16.638 6 16.409V9.49993C6 9.27089 6.07902 9.05122 6.21967 8.88926C6.36032 8.72729 6.55109 8.6363 6.75 8.6363C6.94891 8.6363 7.13968 8.72729 7.28033 8.88926C7.42098 9.05122 7.5 9.27089 7.5 9.49993V16.409ZM12 16.409C12 16.638 11.921 16.8577 11.7803 17.0197C11.6397 17.1816 11.4489 17.2726 11.25 17.2726C11.0511 17.2726 10.8603 17.1816 10.7197 17.0197C10.579 16.8577 10.5 16.638 10.5 16.409V9.49993C10.5 9.27089 10.579 9.05122 10.7197 8.88926C10.8603 8.72729 11.0511 8.6363 11.25 8.6363C11.4489 8.6363 11.6397 8.72729 11.7803 8.88926C11.921 9.05122 12 9.27089 12 9.49993V16.409ZM12 3.45452H6V2.59089C6 2.36184 6.07902 2.14217 6.21967 1.98021C6.36032 1.81825 6.55109 1.72726 6.75 1.72726H11.25C11.4489 1.72726 11.6397 1.81825 11.7803 1.98021C11.921 2.14217 12 2.36184 12 2.59089V3.45452Z" fill="#FAFAFA"/>
</svg>
