<svg width="18" height="20" viewBox="0 0 18 20" fill="none" xmlns="http://www.w3.org/2000/svg">
<path d="M17.25 3.00009H13.5V2.25009C13.5 1.65335 13.2629 1.08106 12.841 0.659101C12.419 0.237145 11.8467 9.15527e-05 11.25 9.15527e-05H6.75C6.15326 9.15527e-05 5.58097 0.237145 5.15901 0.659101C4.73705 1.08106 4.5 1.65335 4.5 2.25009V3.00009H0.75C0.551088 3.00009 0.360322 3.07911 0.21967 3.21976C0.0790178 3.36041 0 3.55118 0 3.75009C0 3.949 0.0790178 4.13977 0.21967 4.28042C0.360322 4.42107 0.551088 4.50009 0.75 4.50009H1.5V18.0001C1.5 18.3979 1.65804 18.7794 1.93934 19.0608C2.22064 19.3421 2.60218 19.5001 3 19.5001H15C15.3978 19.5001 15.7794 19.3421 16.0607 19.0608C16.342 18.7794 16.5 18.3979 16.5 18.0001V4.50009H17.25C17.4489 4.50009 17.6397 4.42107 17.7803 4.28042C17.921 4.13977 18 3.949 18 3.75009C18 3.55118 17.921 3.36041 17.7803 3.21976C17.6397 3.07911 17.4489 3.00009 17.25 3.00009ZM7.5 14.2501C7.5 14.449 7.42098 14.6398 7.28033 14.7804C7.13968 14.9211 6.94891 15.0001 6.75 15.0001C6.55109 15.0001 6.36032 14.9211 6.21967 14.7804C6.07902 14.6398 6 14.449 6 14.2501V8.25009C6 8.05118 6.07902 7.86041 6.21967 7.71976C6.36032 7.57911 6.55109 7.50009 6.75 7.50009C6.94891 7.50009 7.13968 7.57911 7.28033 7.71976C7.42098 7.86041 7.5 8.05118 7.5 8.25009V14.2501ZM12 14.2501C12 14.449 11.921 14.6398 11.7803 14.7804C11.6397 14.9211 11.4489 15.0001 11.25 15.0001C11.0511 15.0001 10.8603 14.9211 10.7197 14.7804C10.579 14.6398 10.5 14.449 10.5 14.2501V8.25009C10.5 8.05118 10.579 7.86041 10.7197 7.71976C10.8603 7.57911 11.0511 7.50009 11.25 7.50009C11.4489 7.50009 11.6397 7.57911 11.7803 7.71976C11.921 7.86041 12 8.05118 12 8.25009V14.2501ZM12 3.00009H6V2.25009C6 2.05118 6.07902 1.86041 6.21967 1.71976C6.36032 1.57911 6.55109 1.50009 6.75 1.50009H11.25C11.4489 1.50009 11.6397 1.57911 11.7803 1.71976C11.921 1.86041 12 2.05118 12 2.25009V3.00009Z" fill="#9D0000"/>
</svg>
